<svg width="43" height="43" viewBox="0 0 43 43" fill="none" xmlns="http://www.w3.org/2000/svg">
<g clip-path="url(#clip0_1_57)">
<g filter="url(#filter0_d_1_57)">
<path d="M21.9587 38.9315C12.303 38.9315 4.47595 31.1045 4.47595 21.4487C4.47595 11.793 12.303 3.96596 21.9587 3.96596C31.6145 3.96596 39.4415 11.793 39.4415 21.4487C39.4415 31.1045 31.6145 38.9315 21.9587 38.9315ZM21.9587 35.435C25.6681 35.435 29.2256 33.9614 31.8485 31.3385C34.4714 28.7156 35.945 25.1581 35.945 21.4487C35.945 17.7394 34.4714 14.1819 31.8485 11.559C29.2256 8.93606 25.6681 7.46252 21.9587 7.46252C18.2494 7.46252 14.6919 8.93606 12.069 11.559C9.44606 14.1819 7.97251 17.7394 7.97251 21.4487C7.97251 25.1581 9.44606 28.7156 12.069 31.3385C14.6919 33.9614 18.2494 35.435 21.9587 35.435ZM15.8398 24.9453H25.4553C25.6871 24.9453 25.9095 24.8532 26.0734 24.6893C26.2373 24.5253 26.3294 24.303 26.3294 24.0712C26.3294 23.8393 26.2373 23.617 26.0734 23.4531C25.9095 23.2891 25.6871 23.197 25.4553 23.197H18.4622C17.303 23.197 16.1913 22.7365 15.3716 21.9169C14.552 21.0972 14.0915 19.9855 14.0915 18.8263C14.0915 17.6671 14.552 16.5554 15.3716 15.7358C16.1913 14.9161 17.303 14.4556 18.4622 14.4556H20.2105V10.9591H23.707V14.4556H28.0777V17.9522H18.4622C18.2303 17.9522 18.008 18.0443 17.8441 18.2082C17.6801 18.3722 17.588 18.5945 17.588 18.8263C17.588 19.0582 17.6801 19.2805 17.8441 19.4444C18.008 19.6084 18.2303 19.7005 18.4622 19.7005H25.4553C26.6145 19.7005 27.7262 20.161 28.5458 20.9806C29.3655 21.8003 29.826 22.912 29.826 24.0712C29.826 25.2303 29.3655 26.3421 28.5458 27.1617C27.7262 27.9814 26.6145 28.4419 25.4553 28.4419H23.707V31.9384H20.2105V28.4419H15.8398V24.9453Z" fill="#3F3F44"/>
<path d="M20.2105 27.9419H16.3398V25.4453H25.4553C25.8197 25.4453 26.1693 25.3005 26.427 25.0428C26.6847 24.7851 26.8294 24.4356 26.8294 24.0712C26.8294 23.7067 26.6847 23.3572 26.427 23.0995C26.1693 22.8418 25.8197 22.697 25.4553 22.697H18.4622C17.4356 22.697 16.4511 22.2892 15.7252 21.5633C14.9993 20.8374 14.5915 19.8529 14.5915 18.8263C14.5915 17.7998 14.9993 16.8152 15.7252 16.0893C16.4511 15.3634 17.4356 14.9556 18.4622 14.9556H20.2105H20.7105V14.4556V11.4591H23.207V14.4556V14.9556H23.707H27.5777V17.4522H18.4622C18.0977 17.4522 17.7482 17.597 17.4905 17.8547C17.2328 18.1124 17.088 18.4619 17.088 18.8263C17.088 19.1908 17.2328 19.5403 17.4905 19.798C17.7482 20.0557 18.0977 20.2005 18.4622 20.2005H25.4553C26.4819 20.2005 27.4664 20.6083 28.1923 21.3342C28.9182 22.0601 29.326 23.0446 29.326 24.0712C29.326 25.0977 28.9182 26.0823 28.1923 26.8082C27.4664 27.5341 26.4819 27.9419 25.4553 27.9419H23.707H23.207V28.4419V31.4384H20.7105V28.4419V27.9419H20.2105ZM21.9587 38.4315C12.5791 38.4315 4.97595 30.8283 4.97595 21.4487C4.97595 12.0691 12.5791 4.46596 21.9587 4.46596C31.3383 4.46596 38.9415 12.0691 38.9415 21.4487C38.9415 30.8283 31.3383 38.4315 21.9587 38.4315ZM21.9587 35.935C25.8007 35.935 29.4854 34.4088 32.2021 31.6921C34.9187 28.9754 36.445 25.2907 36.445 21.4487C36.445 17.6068 34.9187 13.9221 32.2021 11.2054C29.4854 8.48874 25.8007 6.96252 21.9587 6.96252C18.1168 6.96252 14.4321 8.48874 11.7154 11.2054C8.99873 13.9221 7.47251 17.6068 7.47251 21.4487C7.47251 25.2907 8.99873 28.9754 11.7154 31.6921C14.4321 34.4088 18.1168 35.935 21.9587 35.935Z" stroke="black"/>
</g>
</g>
<defs>
<filter id="filter0_d_1_57" x="0.475952" y="3.96596" width="42.9656" height="42.9656" filterUnits="userSpaceOnUse" color-interpolation-filters="sRGB">
<feFlood flood-opacity="0" result="BackgroundImageFix"/>
<feColorMatrix in="SourceAlpha" type="matrix" values="0 0 0 0 0 0 0 0 0 0 0 0 0 0 0 0 0 0 127 0" result="hardAlpha"/>
<feOffset dy="4"/>
<feGaussianBlur stdDeviation="2"/>
<feComposite in2="hardAlpha" operator="out"/>
<feColorMatrix type="matrix" values="0 0 0 0 0 0 0 0 0 0 0 0 0 0 0 0 0 0 0.25 0"/>
<feBlend mode="normal" in2="BackgroundImageFix" result="effect1_dropShadow_1_57"/>
<feBlend mode="normal" in="SourceGraphic" in2="effect1_dropShadow_1_57" result="shape"/>
</filter>
<clipPath id="clip0_1_57">
<rect width="41.9587" height="41.9587" fill="white" transform="translate(0.979492 0.469116)"/>
</clipPath>
</defs>
</svg>
