<svg width="35" height="37" viewBox="0 0 35 37" fill="none" xmlns="http://www.w3.org/2000/svg">
<path d="M29.2354 26.0155H32.1177V29.0172H3.29474V26.0155H6.17703V15.5095C6.17703 12.325 7.39171 9.27106 9.55384 7.01934C11.716 4.76761 14.6485 3.50261 17.7062 3.50261C20.7639 3.50261 23.6964 4.76761 25.8585 7.01934C28.0207 9.27106 29.2354 12.325 29.2354 15.5095V26.0155ZM26.3531 26.0155V15.5095C26.3531 13.1212 25.4421 10.8307 23.8205 9.14187C22.1989 7.45308 19.9995 6.50432 17.7062 6.50432C15.4129 6.50432 13.2135 7.45308 11.5919 9.14187C9.97033 10.8307 9.05932 13.1212 9.05932 15.5095V26.0155H26.3531ZM13.3828 32.0189H22.0296V35.0206H13.3828V32.0189Z" fill="#3F3F44"/>
<ellipse cx="26.3531" cy="9.50607" rx="5.76458" ry="6.00343" fill="#5679FF"/>
</svg>
